<svg xmlns="http://www.w3.org/2000/svg" viewBox="0 0 520 340" fill="none">
 <defs>
  <linearGradient id="ring" x1="100" y1="80" x2="420" y2="300" gradientUnits="userSpaceOnUse"><stop stop-color="#e6c794"/><stop offset=".5" stop-color="#91cdd9"/><stop offset="1" stop-color="#bca9e5"/></linearGradient>
  <radialGradient id="core"><stop stop-color="#e8d8b2"/><stop offset=".35" stop-color="#c9a882"/><stop offset="1" stop-color="#3b465b"/></radialGradient>
  <radialGradient id="glow"><stop stop-color="#91cdd9" stop-opacity=".16"/><stop offset="1" stop-color="#91cdd9" stop-opacity="0"/></radialGradient>
 </defs>
 <ellipse cx="260" cy="165" rx="225" ry="155" fill="url(#glow)"/>
 <g stroke="url(#ring)">
  <circle cx="260" cy="165" r="118" opacity=".18"/>
  <circle cx="260" cy="165" r="145" opacity=".12" stroke-dasharray="2 8"/>
  <ellipse cx="260" cy="165" rx="190" ry="64" transform="rotate(-28 260 165)" opacity=".75"/>
  <ellipse cx="260" cy="165" rx="170" ry="78" transform="rotate(35 260 165)" opacity=".5"/>
  <circle cx="260" cy="165" r="58" fill="#151c28" stroke-opacity=".5"/>
  <circle cx="260" cy="165" r="48" stroke-opacity=".2"/>
 </g>
 <path d="M245 144h15a12 12 0 0 1 0 24h-15m30 18h-15a12 12 0 0 1 0-24h15" stroke="url(#ring)" stroke-width="4" stroke-linecap="round"/>
 <g fill="url(#core)"><circle cx="93" cy="231" r="9"/><circle cx="403" cy="104" r="7"/><circle cx="363" cy="253" r="6"/></g>
 <g fill="#91cdd9"><circle cx="148" cy="65" r="3"/><circle cx="416" cy="203" r="3"/></g>
 <path d="M77 80h10m-5-5v10m357 163h10m-5-5v10" stroke="#e6c794" opacity=".7"/>
</svg>
